<svg xmlns="http://www.w3.org/2000/svg" viewBox="0 0 400 400" width="400" height="400">
  <rect width="400" height="400" rx="36" fill="#13C1FE" />
  <rect x="12" y="12" width="376" height="376" rx="28" fill="#FFFFFF" />
  <g shape-rendering="crispEdges">
    <rect x="53" y="53" width="14" height="14" fill="#000000" /> <rect x="67" y="53" width="14" height="14" fill="#000000" /> <rect x="81" y="53" width="14" height="14" fill="#000000" /> <rect x="95" y="53" width="14" height="14" fill="#000000" /> <rect x="109" y="53" width="14" height="14" fill="#000000" /> <rect x="123" y="53" width="14" height="14" fill="#000000" /> <rect x="137" y="53" width="14" height="14" fill="#000000" /> <rect x="165" y="53" width="14" height="14" fill="#000000" /> <rect x="193" y="53" width="14" height="14" fill="#000000" /> <rect x="221" y="53" width="14" height="14" fill="#000000" /> <rect x="249" y="53" width="14" height="14" fill="#000000" /> <rect x="263" y="53" width="14" height="14" fill="#000000" /> <rect x="277" y="53" width="14" height="14" fill="#000000" /> <rect x="291" y="53" width="14" height="14" fill="#000000" /> <rect x="305" y="53" width="14" height="14" fill="#000000" /> <rect x="319" y="53" width="14" height="14" fill="#000000" /> <rect x="333" y="53" width="14" height="14" fill="#000000" /> <rect x="53" y="67" width="14" height="14" fill="#000000" /> <rect x="137" y="67" width="14" height="14" fill="#000000" /> <rect x="165" y="67" width="14" height="14" fill="#000000" /> <rect x="179" y="67" width="14" height="14" fill="#000000" /> <rect x="207" y="67" width="14" height="14" fill="#000000" /> <rect x="249" y="67" width="14" height="14" fill="#000000" /> <rect x="333" y="67" width="14" height="14" fill="#000000" /> <rect x="53" y="81" width="14" height="14" fill="#000000" /> <rect x="81" y="81" width="14" height="14" fill="#000000" /> <rect x="95" y="81" width="14" height="14" fill="#000000" /> <rect x="109" y="81" width="14" height="14" fill="#000000" /> <rect x="137" y="81" width="14" height="14" fill="#000000" /> <rect x="193" y="81" width="14" height="14" fill="#000000" /> <rect x="207" y="81" width="14" height="14" fill="#000000" /> <rect x="221" y="81" width="14" height="14" fill="#000000" /> <rect x="249" y="81" width="14" height="14" fill="#000000" /> <rect x="277" y="81" width="14" height="14" fill="#000000" /> <rect x="291" y="81" width="14" height="14" fill="#000000" /> <rect x="305" y="81" width="14" height="14" fill="#000000" /> <rect x="333" y="81" width="14" height="14" fill="#000000" /> <rect x="53" y="95" width="14" height="14" fill="#000000" /> <rect x="81" y="95" width="14" height="14" fill="#000000" /> <rect x="95" y="95" width="14" height="14" fill="#000000" /> <rect x="109" y="95" width="14" height="14" fill="#000000" /> <rect x="137" y="95" width="14" height="14" fill="#000000" /> <rect x="165" y="95" width="14" height="14" fill="#000000" /> <rect x="207" y="95" width="14" height="14" fill="#000000" /> <rect x="221" y="95" width="14" height="14" fill="#000000" /> <rect x="249" y="95" width="14" height="14" fill="#000000" /> <rect x="277" y="95" width="14" height="14" fill="#000000" /> <rect x="291" y="95" width="14" height="14" fill="#000000" /> <rect x="305" y="95" width="14" height="14" fill="#000000" /> <rect x="333" y="95" width="14" height="14" fill="#000000" /> <rect x="53" y="109" width="14" height="14" fill="#000000" /> <rect x="81" y="109" width="14" height="14" fill="#000000" /> <rect x="95" y="109" width="14" height="14" fill="#000000" /> <rect x="109" y="109" width="14" height="14" fill="#000000" /> <rect x="137" y="109" width="14" height="14" fill="#000000" /> <rect x="165" y="109" width="14" height="14" fill="#000000" /> <rect x="221" y="109" width="14" height="14" fill="#000000" /> <rect x="249" y="109" width="14" height="14" fill="#000000" /> <rect x="277" y="109" width="14" height="14" fill="#000000" /> <rect x="291" y="109" width="14" height="14" fill="#000000" /> <rect x="305" y="109" width="14" height="14" fill="#000000" /> <rect x="333" y="109" width="14" height="14" fill="#000000" /> <rect x="53" y="123" width="14" height="14" fill="#000000" /> <rect x="137" y="123" width="14" height="14" fill="#000000" /> <rect x="165" y="123" width="14" height="14" fill="#000000" /> <rect x="179" y="123" width="14" height="14" fill="#000000" /> <rect x="193" y="123" width="14" height="14" fill="#000000" /> <rect x="207" y="123" width="14" height="14" fill="#000000" /> <rect x="221" y="123" width="14" height="14" fill="#000000" /> <rect x="249" y="123" width="14" height="14" fill="#000000" /> <rect x="333" y="123" width="14" height="14" fill="#000000" /> <rect x="53" y="137" width="14" height="14" fill="#000000" /> <rect x="67" y="137" width="14" height="14" fill="#000000" /> <rect x="81" y="137" width="14" height="14" fill="#000000" /> <rect x="95" y="137" width="14" height="14" fill="#000000" /> <rect x="109" y="137" width="14" height="14" fill="#000000" /> <rect x="123" y="137" width="14" height="14" fill="#000000" /> <rect x="137" y="137" width="14" height="14" fill="#000000" /> <rect x="165" y="137" width="14" height="14" fill="#000000" /> <rect x="193" y="137" width="14" height="14" fill="#000000" /> <rect x="221" y="137" width="14" height="14" fill="#000000" /> <rect x="249" y="137" width="14" height="14" fill="#000000" /> <rect x="263" y="137" width="14" height="14" fill="#000000" /> <rect x="277" y="137" width="14" height="14" fill="#000000" /> <rect x="291" y="137" width="14" height="14" fill="#000000" /> <rect x="305" y="137" width="14" height="14" fill="#000000" /> <rect x="319" y="137" width="14" height="14" fill="#000000" /> <rect x="333" y="137" width="14" height="14" fill="#000000" /> <rect x="193" y="151" width="14" height="14" fill="#000000" /> <rect x="207" y="151" width="14" height="14" fill="#000000" /> <rect x="53" y="165" width="14" height="14" fill="#000000" /> <rect x="67" y="165" width="14" height="14" fill="#000000" /> <rect x="81" y="165" width="14" height="14" fill="#000000" /> <rect x="137" y="165" width="14" height="14" fill="#000000" /> <rect x="151" y="165" width="14" height="14" fill="#000000" /> <rect x="165" y="165" width="14" height="14" fill="#000000" /> <rect x="193" y="165" width="14" height="14" fill="#000000" /> <rect x="207" y="165" width="14" height="14" fill="#000000" /> <rect x="221" y="165" width="14" height="14" fill="#000000" /> <rect x="249" y="165" width="14" height="14" fill="#000000" /> <rect x="263" y="165" width="14" height="14" fill="#000000" /> <rect x="305" y="165" width="14" height="14" fill="#000000" /> <rect x="319" y="165" width="14" height="14" fill="#000000" /> <rect x="333" y="165" width="14" height="14" fill="#000000" /> <rect x="67" y="179" width="14" height="14" fill="#000000" /> <rect x="81" y="179" width="14" height="14" fill="#000000" /> <rect x="109" y="179" width="14" height="14" fill="#000000" /> <rect x="151" y="179" width="14" height="14" fill="#000000" /> <rect x="165" y="179" width="14" height="14" fill="#000000" /> <rect x="179" y="179" width="14" height="14" fill="#000000" /> <rect x="193" y="179" width="14" height="14" fill="#000000" /> <rect x="221" y="179" width="14" height="14" fill="#000000" /> <rect x="249" y="179" width="14" height="14" fill="#000000" /> <rect x="263" y="179" width="14" height="14" fill="#000000" /> <rect x="291" y="179" width="14" height="14" fill="#000000" /> <rect x="305" y="179" width="14" height="14" fill="#000000" /> <rect x="319" y="179" width="14" height="14" fill="#000000" /> <rect x="333" y="179" width="14" height="14" fill="#000000" /> <rect x="67" y="193" width="14" height="14" fill="#000000" /> <rect x="109" y="193" width="14" height="14" fill="#000000" /> <rect x="137" y="193" width="14" height="14" fill="#000000" /> <rect x="151" y="193" width="14" height="14" fill="#000000" /> <rect x="207" y="193" width="14" height="14" fill="#000000" /> <rect x="235" y="193" width="14" height="14" fill="#000000" /> <rect x="249" y="193" width="14" height="14" fill="#000000" /> <rect x="319" y="193" width="14" height="14" fill="#000000" /> <rect x="53" y="207" width="14" height="14" fill="#000000" /> <rect x="67" y="207" width="14" height="14" fill="#000000" /> <rect x="81" y="207" width="14" height="14" fill="#000000" /> <rect x="109" y="207" width="14" height="14" fill="#000000" /> <rect x="151" y="207" width="14" height="14" fill="#000000" /> <rect x="179" y="207" width="14" height="14" fill="#000000" /> <rect x="207" y="207" width="14" height="14" fill="#000000" /> <rect x="221" y="207" width="14" height="14" fill="#000000" /> <rect x="263" y="207" width="14" height="14" fill="#000000" /> <rect x="305" y="207" width="14" height="14" fill="#000000" /> <rect x="333" y="207" width="14" height="14" fill="#000000" /> <rect x="53" y="221" width="14" height="14" fill="#000000" /> <rect x="81" y="221" width="14" height="14" fill="#000000" /> <rect x="95" y="221" width="14" height="14" fill="#000000" /> <rect x="109" y="221" width="14" height="14" fill="#000000" /> <rect x="137" y="221" width="14" height="14" fill="#000000" /> <rect x="151" y="221" width="14" height="14" fill="#000000" /> <rect x="165" y="221" width="14" height="14" fill="#000000" /> <rect x="179" y="221" width="14" height="14" fill="#000000" /> <rect x="193" y="221" width="14" height="14" fill="#000000" /> <rect x="221" y="221" width="14" height="14" fill="#000000" /> <rect x="235" y="221" width="14" height="14" fill="#000000" /> <rect x="263" y="221" width="14" height="14" fill="#000000" /> <rect x="277" y="221" width="14" height="14" fill="#000000" /> <rect x="291" y="221" width="14" height="14" fill="#000000" /> <rect x="319" y="221" width="14" height="14" fill="#000000" /> <rect x="193" y="235" width="14" height="14" fill="#000000" /> <rect x="207" y="235" width="14" height="14" fill="#000000" /> <rect x="249" y="235" width="14" height="14" fill="#000000" /> <rect x="263" y="235" width="14" height="14" fill="#000000" /> <rect x="277" y="235" width="14" height="14" fill="#000000" /> <rect x="291" y="235" width="14" height="14" fill="#000000" /> <rect x="319" y="235" width="14" height="14" fill="#000000" /> <rect x="333" y="235" width="14" height="14" fill="#000000" /> <rect x="53" y="249" width="14" height="14" fill="#000000" /> <rect x="67" y="249" width="14" height="14" fill="#000000" /> <rect x="81" y="249" width="14" height="14" fill="#000000" /> <rect x="95" y="249" width="14" height="14" fill="#000000" /> <rect x="109" y="249" width="14" height="14" fill="#000000" /> <rect x="123" y="249" width="14" height="14" fill="#000000" /> <rect x="137" y="249" width="14" height="14" fill="#000000" /> <rect x="165" y="249" width="14" height="14" fill="#000000" /> <rect x="193" y="249" width="14" height="14" fill="#000000" /> <rect x="221" y="249" width="14" height="14" fill="#000000" /> <rect x="235" y="249" width="14" height="14" fill="#000000" /> <rect x="263" y="249" width="14" height="14" fill="#000000" /> <rect x="305" y="249" width="14" height="14" fill="#000000" /> <rect x="53" y="263" width="14" height="14" fill="#000000" /> <rect x="137" y="263" width="14" height="14" fill="#000000" /> <rect x="179" y="263" width="14" height="14" fill="#000000" /> <rect x="235" y="263" width="14" height="14" fill="#000000" /> <rect x="249" y="263" width="14" height="14" fill="#000000" /> <rect x="277" y="263" width="14" height="14" fill="#000000" /> <rect x="305" y="263" width="14" height="14" fill="#000000" /> <rect x="319" y="263" width="14" height="14" fill="#000000" /> <rect x="333" y="263" width="14" height="14" fill="#000000" /> <rect x="53" y="277" width="14" height="14" fill="#000000" /> <rect x="81" y="277" width="14" height="14" fill="#000000" /> <rect x="95" y="277" width="14" height="14" fill="#000000" /> <rect x="109" y="277" width="14" height="14" fill="#000000" /> <rect x="137" y="277" width="14" height="14" fill="#000000" /> <rect x="179" y="277" width="14" height="14" fill="#000000" /> <rect x="193" y="277" width="14" height="14" fill="#000000" /> <rect x="207" y="277" width="14" height="14" fill="#000000" /> <rect x="221" y="277" width="14" height="14" fill="#000000" /> <rect x="235" y="277" width="14" height="14" fill="#000000" /> <rect x="249" y="277" width="14" height="14" fill="#000000" /> <rect x="263" y="277" width="14" height="14" fill="#000000" /> <rect x="277" y="277" width="14" height="14" fill="#000000" /> <rect x="291" y="277" width="14" height="14" fill="#000000" /> <rect x="305" y="277" width="14" height="14" fill="#000000" /> <rect x="333" y="277" width="14" height="14" fill="#000000" /> <rect x="53" y="291" width="14" height="14" fill="#000000" /> <rect x="81" y="291" width="14" height="14" fill="#000000" /> <rect x="95" y="291" width="14" height="14" fill="#000000" /> <rect x="109" y="291" width="14" height="14" fill="#000000" /> <rect x="137" y="291" width="14" height="14" fill="#000000" /> <rect x="193" y="291" width="14" height="14" fill="#000000" /> <rect x="207" y="291" width="14" height="14" fill="#000000" /> <rect x="263" y="291" width="14" height="14" fill="#000000" /> <rect x="333" y="291" width="14" height="14" fill="#000000" /> <rect x="53" y="305" width="14" height="14" fill="#000000" /> <rect x="81" y="305" width="14" height="14" fill="#000000" /> <rect x="95" y="305" width="14" height="14" fill="#000000" /> <rect x="109" y="305" width="14" height="14" fill="#000000" /> <rect x="137" y="305" width="14" height="14" fill="#000000" /> <rect x="165" y="305" width="14" height="14" fill="#000000" /> <rect x="179" y="305" width="14" height="14" fill="#000000" /> <rect x="207" y="305" width="14" height="14" fill="#000000" /> <rect x="235" y="305" width="14" height="14" fill="#000000" /> <rect x="249" y="305" width="14" height="14" fill="#000000" /> <rect x="53" y="319" width="14" height="14" fill="#000000" /> <rect x="137" y="319" width="14" height="14" fill="#000000" /> <rect x="165" y="319" width="14" height="14" fill="#000000" /> <rect x="207" y="319" width="14" height="14" fill="#000000" /> <rect x="235" y="319" width="14" height="14" fill="#000000" /> <rect x="249" y="319" width="14" height="14" fill="#000000" /> <rect x="263" y="319" width="14" height="14" fill="#000000" /> <rect x="291" y="319" width="14" height="14" fill="#000000" /> <rect x="305" y="319" width="14" height="14" fill="#000000" /> <rect x="319" y="319" width="14" height="14" fill="#000000" /> <rect x="333" y="319" width="14" height="14" fill="#000000" /> <rect x="53" y="333" width="14" height="14" fill="#000000" /> <rect x="67" y="333" width="14" height="14" fill="#000000" /> <rect x="81" y="333" width="14" height="14" fill="#000000" /> <rect x="95" y="333" width="14" height="14" fill="#000000" /> <rect x="109" y="333" width="14" height="14" fill="#000000" /> <rect x="123" y="333" width="14" height="14" fill="#000000" /> <rect x="137" y="333" width="14" height="14" fill="#000000" /> <rect x="165" y="333" width="14" height="14" fill="#000000" /> <rect x="193" y="333" width="14" height="14" fill="#000000" /> <rect x="263" y="333" width="14" height="14" fill="#000000" /> <rect x="319" y="333" width="14" height="14" fill="#000000" />
  </g>
</svg>